<svg xmlns="http://www.w3.org/2000/svg" width="518" height="180" fill="none" viewBox="0 0 518 180">
    <g fill="#000" opacity=".3">
        <path d="M484.349 26.22c.369 15.192-2.087 30.63-5.648 45.333-7.49 30.262-22.839 59.423-48.38 78.413-18.787 14.09-41.504 21.442-64.712 23.892-3.929.368-3.929 6.494 0 6.126 39.908-4.288 75.64-22.911 97.743-56.85 15.226-23.401 23.33-51.091 26.155-78.659.614-6.003 1.105-12.13.982-18.255-.123-3.92-6.262-3.92-6.14 0z"/>
        <path d="M418.042 163.934s-20.138-23.279 5.648-40.799c0 0 20.138 23.401-5.648 40.799z"/>
        <path d="M444.197 143.718s-26.032-22.422-.492-45.946c0 0 26.032 22.544.492 45.946z"/>
        <path d="M428.725 157.318s18.419-29.037 45.433-7.229c0 0-18.419 29.038-45.433 7.229zM459.054 124.97s8.719-28.302 36.101-16.295c0 0-8.595 28.302-36.101 16.295zM474.649 92.26s6.876-28.793 34.996-18.624c0 0-6.877 28.793-34.996 18.624zM483.367 62.488s-1.228-35.532 34.627-32.591c0 0 1.228 35.408-34.627 32.59z"/>
        <path d="M467.404 113.332s-27.997-15.928-8.718-42.147c0 0 27.996 15.928 8.718 42.147zM479.929 76.82s-29.593-9.067-17.068-37.737c0 .122 29.593 9.189 17.068 37.736zM485.946 46.313S451.073 33.448 468.018 0c0 0 34.873 12.865 17.928 46.313zM27.633 26.22c-.49 16.54 2.456 33.693 6.631 49.62 8.227 31.366 24.927 60.772 51.45 80.13 19.524 14.212 42.977 21.441 66.799 24.014 3.929.368 3.929-5.758 0-6.126-38.925-4.166-73.43-23.034-94.182-56.605-13.875-22.421-21.243-48.64-23.699-74.738-.49-5.39-.86-10.904-.736-16.295 0-3.92-6.14-3.92-6.263 0z"/>
        <path d="M99.958 163.934s20.138-23.279-5.648-40.799c0 0-20.138 23.401 5.648 40.799z"/>
        <path d="M73.926 143.718s26.032-22.422.49-45.946c-.122 0-26.154 22.544-.49 45.946z"/>
        <path d="M89.398 157.318s-18.419-29.037-45.433-7.229c0 0 18.419 29.038 45.433 7.229zM58.945 124.97s-8.718-28.302-36.1-16.295c0 0 8.718 28.302 36.1 16.295zM43.473 92.26S36.597 63.467 8.477 73.636c-.122 0 6.754 28.793 34.996 18.624zM34.632 62.488S35.86 26.956.005 29.897c0 0-1.228 35.408 34.627 32.59z"/>
        <path d="M50.718 113.332s27.997-15.928 8.718-42.147c0 0-27.996 15.928-8.718 42.147zM38.194 76.82s29.592-9.067 17.068-37.737c0 .122-29.593 9.189-17.069 37.736zM32.054 46.313S66.927 33.448 49.98 0c0 0-34.872 12.865-17.927 46.313z"/>
    </g>
</svg>
