<svg xmlns="http://www.w3.org/2000/svg" width="21" height="18" fill="none" viewBox="0 0 21 18">
    <path fill="#373737" stroke="#fff" stroke-width=".2" d="M11.721 9.655l-1.21-.976v8.387a.513.513 0 0 1-.51.514.513.513 0 0 1-.512-.514V8.679l-1.21.975h3.442zm0 0a.51.51 0 0 0 .72-.081l-.082-.064.081.064a.516.516 0 0 0-.08-.722l-2.03-1.637m1.391 2.44l-1.391-2.44m0 0a.507.507 0 0 0-.665.005L7.64 8.852l2.689-1.637zm1.607 6.972v.103h4.184c2.083 0 3.776-1.707 3.776-3.804a3.8 3.8 0 0 0-3.265-3.769C16.598 3.071 13.826.103 10.408.103c-1.327 0-2.704.397-3.785 1.12-1.059.71-1.84 1.736-2 3.015-2.534.245-4.52 2.4-4.52 5.015 0 2.777 2.242 5.037 5 5.037H8.063v-1.028H5.103c-2.192 0-3.977-1.798-3.977-4.01 0-2.21 1.785-4.008 3.977-4.008a.513.513 0 0 0 .511-.515c0-1.063.608-1.96 1.518-2.596.91-.635 2.114-1.001 3.276-1.001 2.86 0 5.202 2.528 5.202 5.653v.412c0 .283.228.514.511.514 1.517 0 2.754 1.244 2.754 2.775s-1.237 2.776-2.754 2.776h-4.184V14.187zM7.64 8.852a.516.516 0 0 0-.08.722l.08-.722zm-.08.722a.509.509 0 0 0 .72.08l-.72-.08z"/>
</svg>
