<svg width="24" height="22" viewBox="0 0 24 22" fill="none" xmlns="http://www.w3.org/2000/svg">
<mask id="mask0" mask-type="alpha" maskUnits="userSpaceOnUse" x="0" y="0" width="24" height="22">
<path d="M24 0H0V22H24V0Z" fill="white"/>
<path d="M12 13.4998C13.2087 13.4998 14.3901 13.1333 15.3951 12.4465C16.4 11.7598 17.1832 10.7837 17.6458 9.64165C18.1083 8.49962 18.2293 7.24298 17.9935 6.03061C17.7577 4.81825 17.1757 3.70462 16.3211 2.83056C15.4665 1.95649 14.3776 1.36125 13.1922 1.12009C12.0068 0.878939 10.7781 1.00271 9.66152 1.47575C8.5449 1.94879 7.5905 2.74986 6.91903 3.77765C6.24756 4.80544 5.88916 6.0138 5.88916 7.24991C5.88916 8.90749 6.53298 10.4972 7.679 11.6693C8.82501 12.8413 10.3793 13.4998 12 13.4998ZM12 2.87497C12.8461 2.87497 13.6731 3.13156 14.3766 3.61228C15.08 4.09301 15.6283 4.77628 15.952 5.57569C16.2758 6.37511 16.3605 7.25476 16.1955 8.10342C16.0304 8.95207 15.623 9.73161 15.0248 10.3435C14.4265 10.9553 13.6643 11.372 12.8346 11.5408C12.0048 11.7096 11.1447 11.623 10.3631 11.2918C9.58144 10.9607 8.91337 10.3999 8.44334 9.68049C7.97331 8.96104 7.72243 8.11519 7.72243 7.24991C7.72243 6.08961 8.1731 4.97682 8.97532 4.15636C9.77753 3.3359 10.8655 2.87497 12 2.87497Z" fill="black"/>
<path d="M22.5901 19.281C19.4567 17.1354 15.7708 15.99 11.9999 15.99C8.22904 15.99 4.54313 17.1354 1.40972 19.281C1.30941 19.3492 1.2232 19.4368 1.15601 19.539C1.08882 19.6412 1.04198 19.756 1.01814 19.8767C0.970013 20.1205 1.01854 20.3738 1.15306 20.581C1.28758 20.7882 1.49707 20.9323 1.73544 20.9815C1.97381 21.0307 2.22154 20.9811 2.42413 20.8435C5.25722 18.9029 8.59013 17.8669 11.9999 17.8669C15.4097 17.8669 18.7426 18.9029 21.5757 20.8435C21.7255 20.9466 21.9023 21.001 22.0829 20.9998C22.2798 20.9999 22.4716 20.9351 22.6297 20.815C22.7879 20.695 22.904 20.526 22.9609 20.3332C23.0178 20.1403 23.0125 19.9339 22.9457 19.7444C22.8789 19.5549 22.7542 19.3924 22.5901 19.281Z" fill="black"/>
</mask>
<g mask="url(#mask0)">
<path d="M12 13.4998C13.2087 13.4998 14.3901 13.1333 15.3951 12.4465C16.4 11.7598 17.1832 10.7837 17.6458 9.64165C18.1083 8.49962 18.2293 7.24298 17.9935 6.03061C17.7577 4.81825 17.1757 3.70462 16.3211 2.83056C15.4665 1.95649 14.3776 1.36125 13.1922 1.12009C12.0068 0.878939 10.7781 1.00271 9.66152 1.47575C8.5449 1.94879 7.5905 2.74986 6.91903 3.77765C6.24756 4.80544 5.88916 6.0138 5.88916 7.24991C5.88916 8.90749 6.53298 10.4972 7.679 11.6693C8.82501 12.8413 10.3793 13.4998 12 13.4998ZM12 2.87497C12.8461 2.87497 13.6731 3.13156 14.3766 3.61228C15.08 4.09301 15.6283 4.77628 15.952 5.57569C16.2758 6.37511 16.3605 7.25476 16.1955 8.10342C16.0304 8.95207 15.623 9.73161 15.0248 10.3435C14.4265 10.9553 13.6643 11.372 12.8346 11.5408C12.0048 11.7096 11.1447 11.623 10.3631 11.2918C9.58144 10.9607 8.91337 10.3999 8.44334 9.68049C7.97331 8.96104 7.72243 8.11519 7.72243 7.24991C7.72243 6.08961 8.1731 4.97682 8.97532 4.15636C9.77753 3.3359 10.8655 2.87497 12 2.87497Z" fill="white"/>
<path d="M22.5901 19.281C19.4567 17.1354 15.7708 15.99 11.9999 15.99C8.22904 15.99 4.54313 17.1354 1.40972 19.281C1.30941 19.3492 1.2232 19.4368 1.15601 19.539C1.08882 19.6412 1.04198 19.756 1.01814 19.8767C0.970013 20.1205 1.01854 20.3738 1.15306 20.581C1.28758 20.7882 1.49707 20.9323 1.73544 20.9815C1.97381 21.0307 2.22154 20.9811 2.42413 20.8435C5.25722 18.9029 8.59013 17.8669 11.9999 17.8669C15.4097 17.8669 18.7426 18.9029 21.5757 20.8435C21.7255 20.9466 21.9023 21.001 22.0829 20.9998C22.2798 20.9999 22.4716 20.9351 22.6297 20.815C22.7879 20.695 22.904 20.526 22.9609 20.3332C23.0178 20.1403 23.0125 19.9339 22.9457 19.7444C22.8789 19.5549 22.7542 19.3924 22.5901 19.281Z" fill="white"/>
<path d="M15.395 12.4465L15.536 12.6529L15.395 12.4465ZM17.6457 9.64165L17.414 9.5478L17.6457 9.64165ZM16.321 2.83056L16.1422 3.00534L16.321 2.83056ZM13.1921 1.12009L13.242 0.875112L13.1921 1.12009ZM9.6614 1.47575L9.56388 1.24555L9.6614 1.47575ZM5.88904 7.24991H5.63904H5.88904ZM7.67888 11.6693L7.85763 11.4945L7.67888 11.6693ZM14.3765 3.61228L14.5175 3.40588L14.3765 3.61228ZM15.9519 5.57569L15.7202 5.66954L15.9519 5.57569ZM16.1954 8.10342L15.95 8.05569L16.1954 8.10342ZM15.0247 10.3435L15.2034 10.5182L15.0247 10.3435ZM12.8345 11.5408L12.8843 11.7858L12.8345 11.5408ZM10.363 11.2918L10.4605 11.0616L10.363 11.2918ZM8.44322 9.68049L8.23392 9.81723L8.44322 9.68049ZM8.9752 4.15636L8.79644 3.98159L8.9752 4.15636ZM22.5901 19.281L22.4488 19.4873L22.4497 19.4879L22.5901 19.281ZM1.40972 19.281L1.55017 19.4879L1.55097 19.4873L1.40972 19.281ZM1.15601 19.539L1.36491 19.6764L1.15601 19.539ZM1.01814 19.8767L0.772877 19.8282L1.01814 19.8767ZM1.15306 20.581L0.943376 20.7172L1.15306 20.581ZM1.73544 20.9815L1.786 20.7367L1.73544 20.9815ZM2.42413 20.8435L2.56458 21.0503L2.56541 21.0498L2.42413 20.8435ZM21.5757 20.8435L21.7173 20.6375L21.717 20.6373L21.5757 20.8435ZM22.0829 20.9998L22.083 20.7498H22.0812L22.0829 20.9998ZM22.6297 20.815L22.4786 20.6159L22.6297 20.815ZM22.9609 20.3332L22.7212 20.2624L22.9609 20.3332ZM22.9457 19.7444L22.7099 19.8275L22.9457 19.7444ZM11.9999 13.7498C13.2593 13.7498 14.4898 13.3679 15.536 12.6529L15.2539 12.2401C14.2902 12.8987 13.1578 13.2498 11.9999 13.2498V13.7498ZM15.536 12.6529C16.5821 11.938 17.3966 10.9225 17.8774 9.73549L17.414 9.5478C16.9697 10.6448 16.2177 11.5815 15.2539 12.2401L15.536 12.6529ZM17.8774 9.73549C18.3581 8.54848 18.4838 7.24265 18.2388 5.98289L17.748 6.07834C17.9746 7.24331 17.8583 8.45076 17.414 9.5478L17.8774 9.73549ZM18.2388 5.98289C17.9938 4.7231 17.3889 3.56516 16.4997 2.65578L16.1422 3.00534C16.9623 3.84409 17.5214 4.9134 17.748 6.07834L18.2388 5.98289ZM16.4997 2.65578C15.6105 1.74634 14.4769 1.12635 13.242 0.875112L13.1423 1.36507C14.2781 1.59614 15.3222 2.16664 16.1422 3.00534L16.4997 2.65578ZM13.242 0.875112C12.0069 0.623864 10.7269 0.752867 9.56388 1.24555L9.75892 1.70594C10.8292 1.25255 12.0065 1.13401 13.1423 1.36507L13.242 0.875112ZM9.56388 1.24555C8.40095 1.73821 7.40788 2.57211 6.70962 3.64091L7.1282 3.91438C7.77288 2.9276 8.6886 2.15937 9.75892 1.70594L9.56388 1.24555ZM6.70962 3.64091C6.01139 4.70966 5.63904 5.96559 5.63904 7.24991H6.13904C6.13904 6.06201 6.48348 4.90122 7.1282 3.91438L6.70962 3.64091ZM5.63904 7.24991C5.63904 8.972 6.30787 10.6247 7.50012 11.844L7.85763 11.4945C6.75786 10.3697 6.13904 8.84298 6.13904 7.24991H5.63904ZM7.50012 11.844C8.69257 13.0636 10.3111 13.7498 11.9999 13.7498V13.2498C10.4474 13.2498 8.95722 12.6191 7.85763 11.4945L7.50012 11.844ZM11.9999 3.12497C12.7953 3.12497 13.5732 3.36615 14.2354 3.81869L14.5175 3.40588C13.7728 2.89697 12.8967 2.62497 11.9999 2.62497V3.12497ZM14.2354 3.81869C14.8977 4.27128 15.4147 4.91516 15.7202 5.66954L16.1837 5.48185C15.8417 4.6374 15.2621 3.91474 14.5175 3.40588L14.2354 3.81869ZM15.7202 5.66954C16.0258 6.42397 16.1058 7.25444 15.95 8.05569L16.4408 8.15115C16.615 7.25509 16.5256 6.32625 16.1837 5.48185L15.7202 5.66954ZM15.95 8.05569C15.7941 8.85692 15.4096 9.59214 14.8459 10.1687L15.2034 10.5182C15.8362 9.87108 16.2665 9.04722 16.4408 8.15115L15.95 8.05569ZM14.8459 10.1687C14.2823 10.7452 13.5648 11.1371 12.7846 11.2958L12.8843 11.7858C13.7637 11.6069 14.5706 11.1654 15.2034 10.5182L14.8459 10.1687ZM12.7846 11.2958C12.0045 11.4545 11.1957 11.3731 10.4605 11.0616L10.2654 11.522C11.0934 11.8728 12.0049 11.9647 12.8843 11.7858L12.7846 11.2958ZM10.4605 11.0616C9.72515 10.7501 9.09575 10.2222 8.65251 9.54376L8.23392 9.81723C8.73075 10.5777 9.43749 11.1713 10.2654 11.522L10.4605 11.0616ZM8.65251 9.54376C8.20923 8.86526 7.97231 8.06698 7.97231 7.24991H7.47231C7.47231 8.1634 7.73714 9.05682 8.23392 9.81723L8.65251 9.54376ZM7.97231 7.24991C7.97231 6.15412 8.39798 5.10431 9.15395 4.33114L8.79644 3.98159C7.94799 4.84934 7.47231 6.02509 7.47231 7.24991H7.97231ZM9.15395 4.33114C9.90973 3.55817 10.9336 3.12497 11.9999 3.12497V2.62497C10.7973 2.62497 9.64508 3.11364 8.79644 3.98159L9.15395 4.33114ZM22.7313 19.0748C19.5566 16.9009 15.8216 15.74 11.9999 15.74V16.24C15.72 16.24 19.3567 17.37 22.4488 19.4873L22.7313 19.0748ZM11.9999 15.74C8.17824 15.74 4.44317 16.9009 1.26847 19.0748L1.55097 19.4873C4.6431 17.37 8.27983 16.24 11.9999 16.24V15.74ZM1.26927 19.0742C1.14156 19.161 1.03217 19.2723 0.947109 19.4017L1.36491 19.6764C1.41422 19.6014 1.47725 19.5374 1.55017 19.4879L1.26927 19.0742ZM0.947109 19.4017C0.862057 19.5311 0.802931 19.676 0.772877 19.8282L1.26341 19.9251C1.28102 19.8359 1.31559 19.7514 1.36491 19.6764L0.947109 19.4017ZM0.772877 19.8282C0.712231 20.1354 0.773207 20.4551 0.943376 20.7172L1.36275 20.4449C1.26388 20.2926 1.22779 20.1055 1.26341 19.9251L0.772877 19.8282ZM0.943376 20.7172C1.11367 20.9795 1.37998 21.1634 1.68488 21.2263L1.786 20.7367C1.61416 20.7012 1.46149 20.597 1.36275 20.4449L0.943376 20.7172ZM1.68488 21.2263C1.9899 21.2893 2.30646 21.2256 2.56458 21.0503L2.28368 20.6367C2.13662 20.7366 1.95772 20.7721 1.786 20.7367L1.68488 21.2263ZM2.56541 21.0498C5.35721 19.1375 8.64094 18.1169 11.9999 18.1169V17.6169C8.53932 17.6169 5.15722 18.6684 2.28285 20.6373L2.56541 21.0498ZM11.9999 18.1169C15.3589 18.1169 18.6426 19.1375 21.4344 21.0498L21.717 20.6373C18.8426 18.6684 15.4605 17.6169 11.9999 17.6169V18.1169ZM21.434 21.0495C21.6257 21.1813 21.8525 21.2514 22.0846 21.2498L22.0812 20.7498C21.9521 20.7507 21.8253 20.7118 21.7173 20.6375L21.434 21.0495ZM22.0827 21.2498C22.3348 21.2499 22.5796 21.167 22.7809 21.0142L22.4786 20.6159C22.3636 20.7032 22.2249 20.7499 22.083 20.7498L22.0827 21.2498ZM22.7809 21.0142C22.9821 20.8614 23.1289 20.6472 23.2007 20.4039L22.7212 20.2624C22.6791 20.4048 22.5937 20.5285 22.4786 20.6159L22.7809 21.0142ZM23.2007 20.4039C23.2725 20.1607 23.2658 19.9004 23.1815 19.6612L22.7099 19.8275C22.7592 19.9673 22.7632 20.12 22.7212 20.2624L23.2007 20.4039ZM23.1815 19.6612C23.0972 19.4221 22.9394 19.2159 22.7304 19.0742L22.4497 19.4879C22.569 19.5689 22.6606 19.6876 22.7099 19.8275L23.1815 19.6612Z" fill="white"/>
</g>
</svg>
