<svg xmlns="http://www.w3.org/2000/svg" width="23" height="21" fill="none" viewBox="0 0 23 21">
    <path fill="#000" stroke="#000" stroke-width=".25" d="M11.5 13.16a6.276 6.276 0 0 0 3.543-1.098 6.488 6.488 0 0 0 2.347-2.925c.482-1.19.608-2.5.362-3.763a6.563 6.563 0 0 0-1.744-3.337A6.333 6.333 0 0 0 12.744.253 6.246 6.246 0 0 0 9.06.624a6.407 6.407 0 0 0-2.861 2.401 6.62 6.62 0 0 0-1.074 3.62c0 1.727.671 3.384 1.866 4.606a6.305 6.305 0 0 0 4.509 1.91zm0-10.86c.839 0 1.66.254 2.357.731a4.324 4.324 0 0 1 1.564 1.95c.322.794.406 1.668.242 2.511a4.377 4.377 0 0 1-1.162 2.225 4.215 4.215 0 0 1-2.173 1.188 4.154 4.154 0 0 1-2.452-.247A4.267 4.267 0 0 1 7.971 9.06a4.417 4.417 0 0 1-.716-2.415c0-1.153.448-2.258 1.244-3.073a4.196 4.196 0 0 1 3-1.271zM21.807 20.828c.23 0 .453-.076.636-.215.184-.14.318-.336.384-.558.066-.223.06-.462-.018-.681a1.083 1.083 0 0 0-.412-.537A19.28 19.28 0 0 0 11.5 15.451 19.28 19.28 0 0 0 .602 18.837a1.075 1.075 0 0 0-.453.69c-.056.281 0 .574.156.814s.399.408.676.465c.278.058.567 0 .802-.16a17.187 17.187 0 0 1 9.717-3.021c3.46 0 6.841 1.051 9.716 3.02m.591.183a1.031 1.031 0 0 1-.59-.183m.59.183V20.7m0 .128V20.7m-.59-.055h-.001l.072-.105m-.072.105l.072-.105m0 0a.904.904 0 0 0 .519.16m-.519-.16a17.314 17.314 0 0 0-9.788-3.043A17.314 17.314 0 0 0 1.71 20.54l20.096.16"/>
</svg>
